<svg width="86" height="101" viewBox="0 0 86 101" fill="none" xmlns="http://www.w3.org/2000/svg">
<g id="Component 4">
<rect id="Rectangle 23" x="0.5" y="0.90564" width="84.9991" height="81.3414" rx="9.5" fill="#101010" stroke="#EBEBEB"/>
<path id="Line 4" d="M42.7996 82.7474L42.7996 0.405054" stroke="#EBEBEB"/>
<path id="Line 5" d="M64.4493 82.7471L64.4493 1.01398" stroke="#EBEBEB"/>
<path id="Line 8" d="M0 24.1345L85.2 24.1345" stroke="#EBEBEB"/>
<path id="Line 9" d="M0 36.506L85.2 36.506" stroke="#EBEBEB"/>
<path id="Line 10" d="M0 47.255L85.2 47.255" stroke="#EBEBEB"/>
<path id="Line 11" d="M0.799988 58.8153L86 58.8153" stroke="#EBEBEB"/>
<path id="Line 12" d="M0.799988 70.7811L86 70.7811" stroke="#EBEBEB"/>
<path id="Line 6" d="M20.1998 82.7469L20.1998 0.405581" stroke="#EBEBEB"/>
<g id="Rectangle 24">
<mask id="path-10-inside-1_9_62" fill="white">
<path d="M60.9993 50.7028H74.1992V94.4C74.1992 98.0451 71.2443 101 67.5993 101V101C63.9542 101 60.9993 98.0451 60.9993 94.4V50.7028Z"/>
</mask>
<path d="M60.9993 50.7028H74.1992V94.4C74.1992 98.0451 71.2443 101 67.5993 101V101C63.9542 101 60.9993 98.0451 60.9993 94.4V50.7028Z" fill="black"/>
<path d="M60.9993 50.7028H74.1992H60.9993ZM75.1992 94.4C75.1992 98.5973 71.7966 102 67.5993 102C63.4019 102 59.9993 98.5973 59.9993 94.4H61.9993C61.9993 97.4928 64.5065 99.9999 67.5993 99.9999C70.692 99.9999 73.1992 97.4928 73.1992 94.4H75.1992ZM67.5993 102C63.4019 102 59.9993 98.5973 59.9993 94.4V50.7028H61.9993V94.4C61.9993 97.4928 64.5065 99.9999 67.5993 99.9999V102ZM75.1992 50.7028V94.4C75.1992 98.5973 71.7966 102 67.5993 102V99.9999C70.692 99.9999 73.1992 97.4928 73.1992 94.4V50.7028H75.1992Z" fill="#EBEBEB" mask="url(#path-10-inside-1_9_62)"/>
</g>
<path id="Polygon 1" d="M61.7537 50.2028L67.9657 39.1103L73.3049 50.2028H61.7537Z" fill="black" stroke="#EBEBEB"/>
<path id="Line 7" d="M0.400024 12.3715L85.6 12.3715" stroke="#EBEBEB"/>
</g>
</svg>
