<svg width="131" height="146" viewBox="0 0 131 146" fill="none" xmlns="http://www.w3.org/2000/svg">
<g id="Send">
<path id="Vector" d="M5.99215 29.3822C5.5382 29.5839 5.10694 29.5395 4.69839 29.2491C4.28983 28.9597 4.08556 28.5376 4.08556 27.983V22.3486C4.08556 21.9957 4.17635 21.6805 4.35793 21.4032C4.53951 21.1259 4.78918 20.9495 5.10694 20.8738L14.9804 18.1512L5.10694 15.4285C4.78918 15.3529 4.53951 15.1764 4.35793 14.8991C4.17635 14.6218 4.08556 14.3066 4.08556 13.9537V8.31929C4.08556 7.76467 4.28983 7.34215 4.69839 7.05173C5.10694 6.76232 5.5382 6.71846 5.99215 6.92014L26.9646 16.752C27.5321 17.0293 27.8158 17.4957 27.8158 18.1512C27.8158 18.8066 27.5321 19.273 26.9646 19.5503L5.99215 29.3822Z" fill="black"/>
</g>
</svg>
